<?xml version="1.0" encoding="UTF-8" standalone="no"?>
<!-- Created with Inkscape (http://www.inkscape.org/) -->

<svg
   xmlns:dc="http://purl.org/dc/elements/1.1/"
   xmlns:cc="http://creativecommons.org/ns#"
   xmlns:rdf="http://www.w3.org/1999/02/22-rdf-syntax-ns#"
   xmlns:svg="http://www.w3.org/2000/svg"
   xmlns="http://www.w3.org/2000/svg"
   xmlns:sodipodi="http://sodipodi.sourceforge.net/DTD/sodipodi-0.dtd"
   xmlns:inkscape="http://www.inkscape.org/namespaces/inkscape"
   width="1000"
   height="186.908"
   viewBox="0 0 1000 186.90801"
   id="svg13358"
   version="1.1"
   inkscape:version="0.92.3 (2405546, 2018-03-11)"
   sodipodi:docname="Indomaret_(2010)_(Script).svg">
  <defs
     id="defs13360" />
  <sodipodi:namedview
     id="base"
     pagecolor="#ffffff"
     bordercolor="#666666"
     borderopacity="1.0"
     inkscape:pageopacity="0.0"
     inkscape:pageshadow="2"
     inkscape:zoom="0.98994949"
     inkscape:cx="307.44671"
     inkscape:cy="175.10399"
     inkscape:document-units="px"
     inkscape:current-layer="layer1"
     showgrid="false"
     inkscape:window-width="1024"
     inkscape:window-height="706"
     inkscape:window-x="-8"
     inkscape:window-y="-8"
     inkscape:window-maximized="1"
     units="px" />
  <metadata
     id="metadata13363">
    <rdf:RDF>
      <cc:Work
         rdf:about="">
        <dc:format>image/svg+xml</dc:format>
        <dc:type
           rdf:resource="http://purl.org/dc/dcmitype/StillImage" />
        <dc:title />
      </cc:Work>
    </rdf:RDF>
  </metadata>
  <g
     inkscape:label="Layer 1"
     inkscape:groupmode="layer"
     id="layer1"
     transform="translate(0,-865.45419)">
    <path
       style="fill:#006ab4;fill-opacity:1;fill-rule:evenodd;stroke:none;stroke-width:1.20021665px;stroke-linecap:butt;stroke-linejoin:miter;stroke-opacity:1"
       d="m 182.8606,865.45386 c 0,0 -22.6452,3.98475 -72.79835,12.96545 -13.573863,3.63712 -67.978594,12.72602 -65.27939,54.33782 1.270885,19.59253 19.952642,32.72161 35.431225,32.72161 19.850595,0 26.565095,-20.58148 26.565095,-20.58148 0,0 -23.272901,-1.01475 -23.272901,-21.00023 0,-12.21064 14.271093,-18.6359 27.047531,-22.49915 12.77645,-3.86327 28.36632,-7.85746 35.88941,-9.10587 l -32.76411,80.44775 C 101.41013,1004.1799 79.143563,1020.802 52.590053,1021.2063 26.036543,1021.6105 18.132447,996.81401 15.863196,988.34504 3.9773429,997.06918 0,1005.5719 0,1013.0441 c 0,15.2398 25.571819,32.3666 50.5237,32.3666 18.759327,0 39.5662,-5.5915 51.24286,-17.2682 17.61438,-13.9129 28.23915,-22.4502 48.5332,-39.56685 13.35375,-9.12298 18.04281,-9.046 20.46923,-8.39584 2.4264,0.65017 5.79543,5.0096 1.10751,13.12933 l -18.90959,51.46436 h 30.44894 l 21.5191,-54.84153 c 4.25196,-7.36462 6.38016,-10.77693 11.4635,-10.05558 5.0833,0.72133 4.79103,5.94229 2.78848,11.61214 l -9.09068,24.45317 c -2.91713,10.887 -3.00166,19.047 6.47515,26.732 7.43263,2.7274 10.90191,1.6094 16.34864,-1.5353 l 34.74246,-17.1892 c 2.05642,10.941 8.48492,20.8243 24.96604,20.8243 14.56708,0 20.85469,-5.6227 25.79132,-10.5593 -0.37439,7.3133 2.94448,10.4561 8.57791,10.4561 5.63339,0 10.26188,-1.8285 14.5008,-3.4621 l 39.77326,-18.8793 c -1.84166,-3.3327 -3.36789,-6.8414 -4.55746,-10.4774 l -17.00712,6.554 c -12.17012,3.261 -12.21661,-2.2307 -9.50335,-6.9301 l 43.84224,-117.69658 h -27.28725 l -20.27502,54.81419 c -23.51076,-6.29971 -51.61741,0.98221 -68.80522,30.75236 -7.06237,11.54857 -10.40788,20.45022 -10.80506,32.44853 l -12.62258,5.7803 c -10.84487,6.2612 -13.12667,-1.8519 -10.12841,-7.9043 l 13.75437,-36.25349 c 3.28783,-11.03552 2.78652,-21.83031 -4.35115,-25.80045 -8.73477,-4.85851 -22.46458,-1.27363 -39.47895,13.94553 -4.75275,-15.43324 -17.13177,-21.84472 -37.23056,-10.24067 l -36.74811,22.95732 z m 141.53071,104.41548 c 0.48358,-0.0323 0.96265,-0.0163 1.43524,0.0516 9.1835,1.30316 2.85224,19.49695 0.80711,23.03929 -8.27624,18.78907 -19.63507,28.17317 -25.01154,28.17317 -13.25883,-2.4231 0.2987,-27.60379 2.71569,-31.79006 4.47354,-7.74845 12.8,-18.98822 20.0535,-19.47399 z"
       id="path14125"
       inkscape:connector-curvature="0"
       sodipodi:nodetypes="ccsscssccscssccsccccscccccscscccccccccccccsccccccccsc" />
    <path
       style="fill:#006ab4;fill-opacity:1;fill-rule:evenodd;stroke:none;stroke-width:1.20021665px;stroke-linecap:butt;stroke-linejoin:miter;stroke-opacity:1"
       d="m 972.17569,893.66656 -18.80645,51.96499 h -13.8545 l -8.87826,23.34268 h 14.28534 l -11.94897,29.98469 c -5.83236,21.76678 -22.60177,29.42418 -34.63321,29.35968 -12.03141,-0.065 -20.25003,-3.157 -23.18186,-10.5745 51.68632,-26.35951 55.06133,-70.12221 20.71803,-72.41901 -15.62523,-0.35126 -31.67194,11.26421 -44.81017,34.02028 -6.28429,10.88473 -8.47596,26.01853 -4.3906,39.01173 -10.22677,6.2927 -17.54573,10.6897 -27.1598,8.1135 -4.81757,-1.2908 -5.3087,-6.75 -2.23019,-15.238 3.07852,-8.4881 8.37199,-21.05915 15.15013,-29.65398 l -2.32123,-15.45054 c -15.82536,0.21466 -21.76426,-3.51855 -24.85678,-8.43226 l 15.68722,-15.18957 c -3.21685,-0.55496 -7.88222,-0.0648 -14.17614,-1.2562 -6.29393,-1.19135 -8.41907,-3.85472 -13.39026,-9.00875 l -16.22124,23.16364 c 1.81644,14.61134 -6.77567,28.74849 -17.53507,41.60903 -9.87665,11.29113 -13.45155,14.59303 -21.66775,18.89443 -4.83668,2.5321 -12.97436,4.9307 -10.78079,-3.2557 l 25.42723,-67.06969 h -20.4055 c -1.80346,0 -7.685,1.18594 -9.64899,6.88477 -1.66975,-2.34395 -6.03899,-6.35985 -13.89092,-6.35985 -15.62521,-0.35126 -33.93776,11.80001 -48.24497,33.23744 -7.17122,11.72656 -12.25332,21.13913 -13.12325,32.45453 l -14.70408,7.3006 c -10.84487,6.2613 -13.12669,-1.852 -10.12843,-7.9043 l 13.65728,-36.21107 c 3.30237,-11.08436 3.25842,-23.09642 -3.97794,-26.88368 -7.96875,-4.17061 -19.19709,-1.89784 -37.2518,13.46004 -2.52894,-9.43812 -10.3013,-16.26977 -17.43191,-16.26977 -7.13058,0 -20.42041,3.73186 -32.08138,15.39286 1.27585,-9.24265 -2.45719,-15.01965 -9.46694,-15.01965 -7.00976,0 -11.08663,2.13082 -18.66988,5.36155 l -34.65144,14.4553 c 1.90712,3.85427 3.40274,7.91173 4.46039,12.10068 l 26.62273,-8.13793 -27.67259,75.32897 h 30.25778 l 20.77568,-53.28497 c 2.96989,-8.94372 9.33232,-12.75728 13.18696,-11.72443 3.85466,1.03286 3.79496,6.45131 1.17731,13.54504 l -19.46486,51.46436 h 32.3757 l 20.24165,-53.26973 c 3.85965,-8.59069 7.11693,-11.67593 12.49516,-11.67593 5.3782,0 4.03282,7.45031 2.54574,11.66069 l -9.28185,25.07527 c -3.79186,19.8646 2.7482,34.3055 23.93436,24.5746 l 34.03244,-17.5168 c 2.8006,11.0051 11.00431,21.1519 25.0813,21.1519 14.56712,0 21.06408,-5.6227 26.00072,-10.5593 1.08205,7.7294 4.1218,10.7322 12.18261,10.7322 9.49442,0 22.34229,-8.1007 27.48749,-11.0721 15.75492,-9.0984 29.52406,-24.8182 42.73476,-45.04073 3.75265,-6.4998 10.6279,-11.72706 14.94074,-10.57143 4.31286,1.15563 3.12268,6.64929 1.66583,9.17261 -3.3198,5.75005 -10.07942,18.65395 -12.68023,27.48455 -3.36371,13.616 -4.44686,29.751 25.43329,29.751 14.17083,0 31.24863,-7.3155 41.28739,-14.9621 6.40843,8.5842 17.04519,14.6622 32.96739,15.2049 21.98365,0 33.54449,-7.9821 39.52143,-11.2542 4.41684,8.0237 14.0558,11.2875 25.15718,11.2875 10.58045,0 23.38333,-3.8428 29.91191,-8.32 6.52854,-4.4772 13.23111,-10.1155 18.10548,-15.3595 0,0 -3.56223,-6.5711 -9.92205,-4.8669 -10.51173,7.8923 -18.75012,12.7678 -26.83514,11.8609 -8.08501,-0.9069 -6.71391,-7.2859 -4.43914,-18.5212 l 15.1471,-40.76547 h 13.8545 l 8.81154,-23.34268 H 980.68986 L 1000,893.66656 Z m -79.48588,73.4416 c 0.23412,0.005 0.45567,0.0328 0.66149,0.0879 5.62177,1.50635 -1.59495,12.80358 -4.87911,16.08772 -8.32315,8.32314 -11.6938,13.28232 -16.82507,12.5467 -5.25465,-1.40797 3.21933,-14.83147 7.65546,-19.26763 3.38442,-4.1506 9.8757,-9.52631 13.38723,-9.45479 z m -186.46228,2.83703 c 9.24491,1.31191 2.89477,19.4029 0.84961,22.94519 -8.27621,18.78902 -19.21936,27.96682 -24.59583,27.96682 -11.59773,0 -3.72477,-21.50173 2.57609,-31.51388 5.17848,-8.9694 13.75349,-20.02375 21.17013,-19.39813 z"
       id="path14019"
       inkscape:connector-curvature="0"
       sodipodi:nodetypes="ccccccsccscssccccscccsccscccccccscscscccccccsccccsccccscsscsscscccssccscccccccccscccccsccc" />
    <path
       style="opacity:1;fill:#d61c24;fill-opacity:1;fill-rule:nonzero;stroke:none;stroke-width:46.80845261;stroke-linecap:square;stroke-linejoin:round;stroke-miterlimit:4;stroke-dasharray:none;stroke-opacity:0.44897958"
       d="m 431.30098,933.05752 a 57.697757,59.651592 0 0 0 -57.69675,59.65379 57.697757,59.651592 0 0 0 57.69675,59.65089 57.697757,59.651592 0 0 0 57.69977,-59.65089 57.697757,59.651592 0 0 0 -57.69977,-59.65379 z m 0,7.91034 a 50.04738,51.742151 0 0 1 50.04733,51.74345 50.04738,51.742151 0 0 1 -50.04733,51.74349 50.04738,51.742151 0 0 1 -50.04735,-51.74349 50.04738,51.742151 0 0 1 50.04735,-51.74345 z m 0,6.08373 a 44.162477,45.657965 0 0 0 -44.16086,45.65972 44.162477,45.657965 0 0 0 44.16086,45.65669 44.162477,45.657965 0 0 0 44.16387,-45.65669 44.162477,45.657965 0 0 0 -44.16387,-45.65972 z m 0,7.91339 a 36.5121,37.748522 0 0 1 36.51445,37.74633 36.5121,37.748522 0 0 1 -36.51445,37.74949 36.5121,37.748522 0 0 1 -36.51145,-37.74949 36.5121,37.748522 0 0 1 36.51145,-37.74633 z m 0,6.08068 a 30.627198,31.664338 0 0 0 -30.62798,31.66565 30.627198,31.664338 0 0 0 30.62798,31.66269 30.627198,31.664338 0 0 0 30.62798,-31.66269 30.627198,31.664338 0 0 0 -30.62798,-31.66565 z m 0,7.91037 a 22.976825,23.754895 0 0 1 22.97854,23.75528 22.976825,23.754895 0 0 1 -22.97854,23.75539 22.976825,23.754895 0 0 1 -22.97555,-23.75539 22.976825,23.754895 0 0 1 22.97555,-23.75528 z"
       id="path14029"
       inkscape:connector-curvature="0" />
  </g>
</svg>
